<?xml version="1.0" encoding="UTF-8"?>
<svg width="30px" height="25px" viewBox="0 0 30 25" version="1.1" xmlns="http://www.w3.org/2000/svg" xmlns:xlink="http://www.w3.org/1999/xlink">
    <!-- Generator: Sketch 61.2 (89653) - https://sketch.com -->
    <title>Logomark</title>
    <desc>Created with Sketch.</desc>
    <g id="📚-Design" stroke="none" stroke-width="1" fill="none" fill-rule="evenodd">
        <g id="Homepage-LRG" transform="translate(-32.000000, -14.000000)" fill="#FFFFFF">
            <g id="HERO">
                <g id="Organism-/-Header-/-LRG">
                    <g id="Header">
                        <g id="Group-3" transform="translate(32.000000, 14.269231)">
                            <g id="Atom-/-Image-Assets-/-Logo" transform="translate(0.000000, 0.513082)">
                                <g id="Bookshop_Logo_White">
                                    <path d="M26.5294471,19.94761 C26.1696034,20.4096099 25.7328398,20.8030316 25.2386073,21.1017073 C25.088304,21.1838205 24.9388849,21.2695432 24.7868133,21.3272931 C23.6506975,21.7685391 22.4279362,21.7856836 21.1963336,21.7901953 L14.0569285,21.7901953 L12.7979176,21.7901953 L5.24827306,21.7901953 C4.85748457,21.7901953 4.54096358,21.4671564 4.54096358,21.0683206 L4.54096358,20.4772856 L4.54096358,19.0046612 L4.54096358,17.0998142 L4.54096358,15.2103071 L4.54096358,13.7855068 C4.54096358,13.4949522 4.49940915,13.1637922 4.64882828,12.9012102 C4.77260744,12.6846478 5.00159888,12.5474916 5.24827306,12.5474916 L20.3387208,12.5474916 C21.2794425,12.5474916 22.2351944,12.5303471 23.1785684,12.6205814 C24.138741,12.7135228 25.055591,13.0726555 25.830979,13.657374 C26.0891469,13.86762 26.3243273,14.1067411 26.5294471,14.3702253 C27.1784035,15.147143 27.5921796,16.1207716 27.5993414,17.141322 C27.6063258,18.1745052 27.1898973,19.1643759 26.5294471,19.94761 M4.54096358,8.4535595 L4.54096358,6.52344692 L4.54096358,4.52746326 L4.54096358,2.9781396 L4.54096358,2.38620232 C4.54096358,1.98736652 4.85748457,1.66342523 5.24827306,1.66342523 C5.24827306,1.66342523 21.1963336,1.66342523 21.2060591,1.66613226 L22.1264456,1.66613226 C23.3156096,1.63545259 24.4888592,1.94856575 25.5126897,2.56847569 C26.4534113,3.21455358 27.149227,4.16923292 27.4843149,5.27550596 C27.5851065,5.62381052 27.6567216,5.98474789 27.6524948,6.34929464 C27.6381547,7.35179818 27.2111166,8.30196581 26.5648126,9.05632491 C26.2032006,9.51381303 25.7584797,9.89640664 25.25629,10.1842542 C24.1369728,10.7220509 22.9009494,10.853793 21.6666944,10.8610118 C21.6666944,10.8610118 21.2034067,10.8610118 21.1963336,10.8619141 L5.24827306,10.8619141 C4.8221191,10.8619141 4.53742703,10.4766135 4.53830912,10.0660472 C4.53830912,9.52915286 4.54096358,8.99135618 4.54096358,8.4535595 M29.1279253,16.3292129 C29.0651516,15.8735295 28.9493296,15.4268695 28.7751547,15.0027681 C28.6124735,14.5777643 28.4055855,14.1726121 28.1562589,13.7936279 C27.8954385,13.4218624 27.5992527,13.0771672 27.272122,12.7649564 C27.0776119,12.5844877 26.8654191,12.4130424 26.6532262,12.2506206 L26.2995715,11.988941 C26.1837496,11.8987067 26.0520132,11.8174958 25.9459168,11.7272614 C26.3711866,11.4493397 26.7814261,11.1488593 27.1739828,10.824918 C27.5037659,10.5271447 27.7999517,10.19418 28.0581197,9.83234025 C28.3136353,9.46508648 28.5293646,9.07166475 28.7044237,8.6592938 C28.848538,8.32091502 28.9696648,7.97621983 29.0368592,7.61347777 C29.171248,6.88979835 29.1792052,6.12912284 29.0766454,5.4009317 C29.0324385,5.08872087 28.9634758,4.78011942 28.8688732,4.47963906 C28.6761314,3.87326428 28.3879027,3.29847152 28.0174494,2.78413577 C27.8644937,2.57208506 27.6965077,2.37086248 27.5196804,2.18046802 C27.0572768,1.68869085 26.5232581,1.27090584 25.9370754,0.944257524 C25.5586648,0.701527142 25.1510777,0.51113268 24.7258079,0.375781166 C23.6515816,0.0951523613 22.5446423,-0.0293710313 21.4368188,0.00582036225 L20.552682,0.00582036225 L6.93697445,0.00582036225 C6.93697445,0.00582036225 1.95663156,0.00582036225 0.297106694,0.00582036225 C0.140614471,0.00582036225 0.0141829012,0.134855472 0.0141829012,0.302691349 L0.0141829012,1.35031206 C0.0141829012,1.64808539 0.305948062,1.66522992 0.526982275,1.66522992 L1.50837418,1.66522992 C1.50837418,1.66522992 2.12108102,1.66793695 2.32620077,1.66793695 C2.71698926,1.66793695 3.03793093,1.98736652 3.03793093,2.38620232 C3.0370468,2.50350696 3.03616266,2.73901859 3.03793093,2.85632324 C3.03881507,2.98626069 3.03793093,3.11619815 3.03793093,3.24523326 C3.03616266,4.9687092 3.03793093,10.139137 3.03793093,10.1400394 C3.03793093,10.3385549 2.95659034,10.5298517 2.81601258,10.6652032 C2.74616577,10.732879 2.66305691,10.7852149 2.57375909,10.8186016 C2.46324198,10.8601094 2.35626142,10.8601094 2.23955536,10.8610118 C1.66840295,10.8619141 1.09282986,10.8790586 0.521677454,10.8808633 C0.428843085,10.8808633 0.313905294,10.8727422 0.225491609,10.8998125 C0.142382745,10.9250781 0.0769566177,10.9882422 0.0371704593,11.0658437 C-0.00261569899,11.1461523 0,11.2273632 0,11.3148905 C0,11.4583631 0.00268912212,11.6009334 0.00445739582,11.744406 C0.00622566953,11.8978044 -0.00438397269,12.0512027 0.00799394323,12.2027964 C0.0132987643,12.2704722 0.0230242697,12.3390503 0.0530849227,12.3995073 C0.107017271,12.5077885 0.221955061,12.5501986 0.335124578,12.5529057 L1.08398849,12.5529057 L2.17943405,12.5529057 C2.41019377,12.5529057 2.63564867,12.582683 2.81070776,12.7523236 C3.01582751,12.9517415 3.03881507,13.2053 3.04058334,13.4751007 C3.04323576,13.7250498 3.04235162,13.9740966 3.04235162,14.2231434 C3.04146748,14.5967135 3.03793093,14.9711861 3.03793093,15.3447562 L3.03793093,15.6849397 L3.03793093,17.3398375 L3.03793093,18.305345 L3.03793093,20.1145436 L3.03793093,21.0683206 C3.03793093,21.4671564 2.7205258,21.7901953 2.32973732,21.7901953 L1.09459813,21.7901953 C0.951367964,21.7901953 0.665791761,21.7883906 0.523445728,21.7901953 C0.440336864,21.7910977 0.356343863,21.789293 0.306832199,21.7929023 C0.206040598,21.8001211 0.157413071,21.8154609 0.0937552178,21.8605781 C0.038938733,21.8984765 0.00710980638,21.9634453 0.00534153268,22.0320234 C0.00445739582,22.0636054 0.00534153268,22.1267694 0.00534153268,22.1574491 L0.00534153268,23.1599526 C0.00445739582,23.2276284 0.0292132277,23.2916948 0.0760724808,23.3404213 C0.16890685,23.4144135 0.268814314,23.4353741 0.398782432,23.4353741 L7.86354987,23.4353741 L16.6890039,23.4353741 C18.5067893,23.4353741 20.2900933,23.4270463 22.1069946,23.4353741 C22.6418973,23.4378744 23.2139339,23.4144135 23.744416,23.3404213 C24.0980707,23.2907924 24.4464207,23.2041675 24.7868133,23.0958862 C25.2023577,22.950609 25.6019875,22.7629215 25.9812822,22.5373357 C26.5665808,22.2025663 27.0979471,21.7757578 27.5550458,21.2740549 C28.4312255,20.3103521 29.0147558,19.1102353 29.1500287,17.7946186 C29.2004245,17.3082555 29.1951197,16.8137713 29.1279253,16.3292129" id="Logomark"></path>
                                </g>
                            </g>
                        </g>
                    </g>
                </g>
            </g>
        </g>
    </g>
</svg>